<svg width="32" height="32" viewBox="0 0 32 32" fill="none" xmlns="http://www.w3.org/2000/svg">
<path fill-rule="evenodd" clip-rule="evenodd" d="M2.66602 5.1518C2.66602 4.32466 2.66602 3.91108 2.84024 3.65599C2.99248 3.4331 3.22836 3.28121 3.49427 3.23485C3.79859 3.1818 4.1751 3.35294 4.9281 3.69521L25.5904 13.0872C27.6264 14.0126 28.6445 14.4754 28.9603 15.1166C29.2347 15.6738 29.2347 16.3269 28.9603 16.884C28.6445 17.5253 27.6264 17.988 25.5904 18.9135L4.9281 28.3054C4.1751 28.6477 3.79859 28.8189 3.49427 28.7658C3.22836 28.7194 2.99248 28.5676 2.84024 28.3447C2.66602 28.0896 2.66602 27.676 2.66602 26.8489V22.6021C2.66602 21.2003 2.66602 20.4995 2.91707 19.925C3.13847 19.4184 3.49553 18.9829 3.94885 18.6665C4.46292 18.3076 5.15016 18.1702 6.52466 17.8953L15.9993 16.0003L6.52466 14.1054C5.15016 13.8305 4.46292 13.693 3.94885 13.3342C3.49553 13.0178 3.13847 12.5822 2.91707 12.0756C2.66602 11.5012 2.66602 10.8003 2.66602 9.3986V5.1518Z" fill="#FFC633"/>
</svg>
